<?xml version="1.0" standalone="no"?>
<!DOCTYPE svg PUBLIC "-//W3C//DTD SVG 20010904//EN"
 "http://www.w3.org/TR/2001/REC-SVG-20010904/DTD/svg10.dtd">
<svg version="1.0" xmlns="http://www.w3.org/2000/svg"
 width="1280.000000pt" height="1144.000000pt" viewBox="0 0 1280.000000 1144.000000"
 preserveAspectRatio="xMidYMid meet">
<metadata>
Created by potrace 1.15, written by Peter Selinger 2001-2017
</metadata>
<g transform="translate(0.000000,1144.000000) scale(0.100000,-0.100000)"
fill="#000000" stroke="none">
<path d="M5577 11428 c-132 -36 -292 -320 -433 -767 l-42 -135 -58 -12 c-119
-24 -225 -77 -209 -104 9 -14 37 -11 163 19 45 10 82 18 82 17 0 0 -6 -21 -13
-45 -12 -37 -19 -45 -52 -57 -43 -14 -87 -44 -93 -62 -5 -15 46 -16 82 -2 14
5 26 6 26 2 0 -4 -15 -74 -34 -154 -62 -266 -110 -576 -122 -796 l-7 -122 -91
-29 c-82 -25 -91 -30 -91 -52 0 -23 2 -24 72 -22 39 2 83 7 96 12 24 9 25 8
32 -47 16 -131 68 -208 176 -262 32 -17 59 -33 59 -35 0 -8 -134 -165 -141
-165 -3 0 -34 40 -70 89 -64 89 -88 108 -108 88 -20 -20 -12 -39 58 -147 l68
-106 -23 -29 c-15 -19 -27 -26 -33 -20 -5 6 -50 66 -101 135 -50 69 -98 129
-106 133 -19 11 -51 0 -58 -18 -9 -23 9 -60 92 -193 42 -68 84 -134 92 -147
14 -23 13 -26 -7 -46 l-21 -22 -199 129 c-227 147 -333 204 -381 204 -37 0
-49 -18 -33 -48 6 -11 126 -95 268 -187 142 -93 264 -174 271 -180 11 -10 1
-30 -48 -106 -76 -117 -163 -293 -234 -469 -44 -112 -57 -134 -72 -132 -44 8
-455 124 -524 147 -81 28 -240 65 -277 65 -27 0 -29 -16 -8 -47 25 -35 77 -61
162 -82 79 -19 625 -172 632 -177 1 -2 -8 -51 -22 -111 -14 -59 -30 -139 -36
-178 -13 -86 -34 -462 -27 -480 3 -9 -13 -14 -57 -19 -137 -13 -578 -37 -852
-46 -353 -11 -465 -31 -465 -80 0 -46 179 -68 410 -51 370 28 908 71 937 76
l31 6 12 -73 c49 -311 169 -519 482 -836 72 -72 129 -134 127 -137 -3 -2 -35
-18 -72 -35 -51 -23 -67 -35 -67 -50 0 -33 25 -34 122 -1 l93 30 28 -27 28
-28 -113 -53 c-167 -77 -163 -74 -163 -100 0 -13 9 -29 20 -36 17 -11 36 -8
125 19 58 18 134 44 170 58 l66 25 104 -84 c206 -165 503 -349 758 -468 45
-21 82 -41 82 -45 0 -11 -144 -51 -260 -72 -158 -29 -504 -36 -678 -14 -234
30 -353 72 -687 245 -224 116 -293 144 -440 181 -158 40 -287 50 -505 40 -190
-9 -298 -26 -452 -74 l-77 -23 -19 21 c-41 45 -126 182 -167 269 -93 200 -144
428 -152 677 -6 214 10 307 85 492 28 68 73 177 100 243 27 66 61 165 76 220
15 55 55 186 88 290 102 324 113 377 113 550 l0 150 -36 75 c-69 144 -210 296
-397 429 -348 246 -626 331 -990 301 -74 -6 -138 -12 -144 -13 -5 -1 -17 23
-27 53 -23 74 -90 199 -112 210 -24 13 -44 4 -58 -27 -10 -22 -8 -30 14 -59
14 -18 39 -67 56 -110 32 -81 30 -93 -16 -94 -11 0 -29 -3 -40 -6 -18 -4 -23
2 -33 43 -17 62 -82 193 -105 207 -12 8 -22 8 -34 0 -27 -17 -27 -50 1 -86 20
-27 80 -178 73 -184 -1 -1 -65 -18 -142 -38 -601 -157 -966 -368 -1052 -609
-25 -70 -28 -112 -12 -189 14 -66 88 -211 132 -259 48 -52 141 -74 312 -74
216 1 293 25 548 169 255 144 363 183 482 172 153 -14 334 -104 441 -219 143
-152 155 -277 68 -657 -19 -85 -55 -252 -80 -370 -24 -118 -73 -325 -109 -460
-36 -135 -75 -293 -86 -351 l-21 -106 -57 -13 c-165 -37 -235 -76 -212 -119
19 -35 43 -42 76 -21 32 19 173 65 180 58 3 -2 2 -27 -2 -55 l-6 -51 -57 -11
c-32 -6 -82 -24 -111 -39 -43 -21 -54 -32 -54 -51 0 -42 25 -46 96 -18 35 14
80 28 100 32 l36 7 7 -74 c28 -308 144 -643 329 -951 43 -70 77 -131 77 -135
0 -5 -18 -49 -41 -97 -122 -265 -211 -654 -196 -860 4 -49 27 -158 62 -285 66
-245 81 -346 66 -431 -36 -205 -177 -316 -677 -532 l-151 -65 -52 48 c-101 95
-180 133 -195 94 -14 -37 -5 -54 47 -87 28 -19 65 -48 80 -65 l29 -30 -47 -21
c-26 -12 -49 -21 -52 -21 -2 0 -21 16 -41 36 -48 47 -116 94 -137 94 -8 0 -21
-12 -27 -26 -11 -24 -10 -29 15 -48 16 -11 47 -37 69 -57 l42 -36 -80 -46
c-157 -91 -258 -199 -294 -313 -26 -86 -31 -384 -7 -485 35 -144 87 -252 149
-304 79 -67 249 -110 336 -86 48 13 119 73 152 126 l21 33 94 -44 c209 -99
336 -85 397 45 26 56 36 61 64 30 24 -27 93 -67 136 -80 23 -6 49 -6 83 2 42
10 62 24 125 88 45 45 90 102 110 141 33 61 35 71 35 160 0 86 -3 101 -32 163
-18 37 -50 93 -73 124 -22 31 -40 59 -40 62 0 4 40 12 89 19 252 34 463 148
627 339 151 177 214 342 250 656 l5 48 47 -36 c26 -19 102 -72 169 -118 108
-72 123 -86 130 -117 13 -59 9 -370 -5 -425 -7 -28 -40 -97 -72 -154 -73 -129
-94 -211 -95 -366 0 -102 2 -114 29 -165 36 -68 133 -165 206 -205 110 -60
233 -33 373 82 56 46 59 47 130 47 65 1 78 5 132 38 111 68 125 94 125 242 l0
103 55 -10 c98 -16 183 9 220 67 42 63 41 276 -1 359 -41 81 -118 127 -237
142 l-58 7 -35 71 -36 70 39 -6 c104 -18 278 -28 366 -23 170 12 319 64 427
150 l45 35 23 -37 c100 -162 126 -307 72 -412 -11 -21 -52 -67 -92 -101 -145
-125 -438 -438 -547 -582 -71 -96 -126 -211 -142 -299 -35 -197 76 -551 219
-694 87 -86 285 -173 398 -174 99 0 200 71 244 172 l24 54 119 -60 c113 -57
122 -60 205 -64 74 -3 92 0 119 17 51 32 100 152 129 316 3 18 11 20 106 20
91 0 109 3 153 26 102 52 160 176 160 339 0 85 -3 100 -27 141 -51 87 -170
174 -330 244 l-67 29 45 27 c100 58 177 153 227 280 46 114 89 329 103 512 4
48 10 87 14 87 4 0 32 -9 62 -19 159 -55 245 -138 268 -262 18 -95 -4 -296
-57 -514 -58 -241 -63 -335 -21 -407 35 -58 85 -98 179 -143 97 -46 213 -69
301 -61 76 7 202 50 265 89 108 68 177 190 198 350 l6 48 47 -7 c91 -15 197
-8 246 15 52 25 106 82 137 142 25 51 36 201 21 293 -9 58 -9 60 24 106 100
140 105 261 15 396 l-21 31 77 54 c51 36 79 62 81 77 2 12 -1 22 -5 22 -23 0
-137 -44 -168 -66 l-36 -24 -44 34 -44 33 102 68 c126 83 147 102 147 132 0
13 -1 23 -3 23 -2 0 -28 -7 -58 -16 -77 -23 -135 -55 -210 -114 l-65 -51 -110
-3 c-98 -2 -120 -6 -214 -40 -58 -20 -112 -39 -120 -42 -13 -4 -15 13 -16 113
0 149 -22 247 -79 361 -73 145 -186 253 -355 337 -41 21 -76 38 -78 40 -1 1
14 37 34 81 46 102 106 250 155 388 21 60 40 111 42 112 2 2 27 -3 56 -11 53
-14 101 -7 101 15 0 13 -35 34 -90 54 l-46 17 10 55 c6 29 13 54 16 54 3 0 41
-9 84 -19 60 -14 86 -16 108 -9 16 6 27 15 25 22 -6 17 -75 54 -150 78 l-69
23 7 100 c7 99 38 225 55 225 4 0 34 -10 65 -22 l57 -22 -7 -40 c-14 -83 -12
-91 18 -94 15 -2 27 1 27 7 0 5 9 30 19 54 l20 45 56 -21 56 -20 -6 -51 c-3
-28 -8 -63 -11 -78 -5 -23 -1 -30 21 -40 35 -16 48 1 64 81 l12 59 92 -29
c406 -129 864 -210 1342 -239 214 -13 401 -6 547 21 101 18 299 77 379 112
l37 16 30 -64 c48 -100 80 -145 102 -145 13 0 20 7 20 19 0 23 -58 191 -72
208 -7 8 2 18 31 32 22 12 45 21 50 21 5 0 37 -54 70 -120 56 -109 80 -140
110 -140 6 0 11 12 11 26 0 38 -57 203 -85 246 l-24 37 142 87 c78 48 175 112
216 142 90 68 287 246 301 273 19 35 8 43 310 -216 283 -243 428 -343 523
-360 32 -6 37 -5 37 12 0 29 -49 92 -121 155 -65 57 -266 214 -329 257 -44 30
-320 252 -320 257 0 2 39 50 86 106 47 57 135 169 196 251 60 81 114 147 118
147 4 0 76 -25 160 -55 265 -97 603 -206 652 -212 51 -6 111 12 105 31 -5 19
-107 63 -257 111 -422 134 -610 197 -610 204 0 4 23 46 51 92 121 200 192 371
235 570 l27 126 246 6 c135 4 307 7 382 7 119 0 138 2 152 18 24 27 21 38 -15
53 -26 11 -107 14 -390 12 l-358 -1 0 47 c0 26 3 50 6 53 3 4 36 -2 72 -13 62
-18 68 -18 79 -3 20 27 0 47 -74 74 l-68 26 2 48 c1 26 4 50 7 53 3 3 58 -2
123 -12 112 -16 118 -16 130 1 18 24 16 31 -9 48 -23 14 -193 56 -229 56 -15
0 -19 7 -19 38 0 33 5 42 43 68 103 73 209 224 344 490 205 403 401 992 479
1434 9 52 18 101 20 109 4 11 27 12 127 7 70 -4 128 -2 136 3 42 28 -42 64
-176 77 l-73 7 0 50 0 50 153 -6 c137 -5 154 -4 176 12 l24 19 -31 16 c-48 25
-164 46 -252 46 l-79 0 -10 38 c-27 96 -90 149 -198 162 -37 5 -155 14 -261
21 -168 11 -230 10 -475 -5 -155 -10 -336 -24 -401 -32 -129 -16 -136 -14
-136 34 0 46 -32 167 -49 185 -14 14 -20 15 -34 5 -15 -12 -16 -23 -6 -131 7
-65 10 -119 8 -121 -2 -2 -16 -6 -30 -10 -22 -5 -28 -2 -33 17 -3 12 -32 68
-65 124 -62 104 -90 128 -117 101 -12 -12 -6 -32 42 -137 30 -68 54 -124 52
-126 -2 -2 -66 -19 -143 -38 -179 -45 -308 -87 -463 -148 l-122 -49 -80 40
c-116 58 -298 129 -541 210 -118 39 -221 74 -229 77 -8 3 28 15 80 27 142 33
206 76 169 113 -16 16 -47 9 -233 -49 l-158 -50 -65 18 c-79 21 -79 21 84 100
119 57 167 100 143 129 -16 19 -58 5 -134 -44 -33 -21 -101 -62 -149 -91 l-89
-53 -69 12 c-39 7 -69 18 -69 24 0 25 43 80 123 160 46 45 94 98 107 117 13
19 50 63 83 97 40 41 58 67 54 77 -20 51 -129 -29 -182 -134 -10 -19 -57 -74
-105 -121 -48 -47 -100 -108 -115 -135 -16 -27 -29 -50 -30 -51 -1 -2 -35 7
-76 18 l-75 20 3 67 c2 37 8 114 13 171 10 107 8 121 -15 121 -35 0 -64 -133
-65 -287 0 -29 -1 -53 -3 -53 -2 0 -24 7 -49 15 l-45 16 -42 114 c-46 123 -72
165 -128 208 -39 29 -72 34 -91 15 -19 -19 -15 -26 54 -98 49 -51 73 -86 93
-137 16 -37 25 -69 21 -71 -9 -3 -146 50 -203 80 -23 12 -135 60 -250 108
l-207 87 -48 79 c-46 76 -144 214 -231 321 l-42 52 88 26 c98 30 114 40 106
62 -11 28 -45 30 -152 7 l-106 -23 -22 27 c-13 15 -23 30 -23 33 0 3 36 33 80
65 80 59 91 77 58 98 -18 11 -59 -7 -164 -70 l-42 -24 -63 66 c-84 86 -227
212 -402 352 -276 219 -451 335 -718 475 -154 81 -202 95 -272 75z"/>
</g>
</svg>
